<svg xmlns="http://www.w3.org/2000/svg" xmlns:xlink="http://www.w3.org/1999/xlink" xml:space="preserve" width="88" height="31"><defs><linearGradient id="h"><stop offset="0" stop-color="#ffcc67"/><stop offset="1" stop-color="#e6b450"/></linearGradient><linearGradient id="a"><stop offset="0" stop-color="#fcff67" stop-opacity=".8"/><stop offset="1" stop-color="#fcff67" stop-opacity=".15"/></linearGradient><linearGradient id="b"><stop offset="0" stop-color="#fcff67"/><stop offset="1" stop-color="#fcff67" stop-opacity=".446"/></linearGradient><linearGradient id="c"><stop offset="0" stop-color="#fcff67"/><stop offset="1" stop-color="#fcff67" stop-opacity=".161"/></linearGradient><linearGradient xlink:href="#a" id="t" x1="156.858" x2="155.607" y1="18.337" y2="-9.624" gradientUnits="userSpaceOnUse"/><linearGradient xlink:href="#b" id="n" x1="43.328" x2="41.277" y1="20.257" y2="-7.551" gradientUnits="userSpaceOnUse"/><linearGradient xlink:href="#b" id="o" x1="43.328" x2="41.277" y1="20.257" y2="-7.551" gradientUnits="userSpaceOnUse"/><linearGradient xlink:href="#b" id="p" x1="43.328" x2="41.277" y1="20.257" y2="-7.551" gradientUnits="userSpaceOnUse"/><linearGradient xlink:href="#b" id="q" x1="43.328" x2="41.277" y1="20.257" y2="-7.551" gradientUnits="userSpaceOnUse"/><linearGradient xlink:href="#b" id="r" x1="43.328" x2="41.277" y1="20.257" y2="-7.551" gradientUnits="userSpaceOnUse"/><linearGradient xlink:href="#b" id="s" x1="43.328" x2="41.277" y1="20.257" y2="-7.551" gradientUnits="userSpaceOnUse"/><linearGradient xlink:href="#c" id="u" x1="156.858" x2="155.607" y1="18.337" y2="-9.624" gradientUnits="userSpaceOnUse"/><linearGradient xlink:href="#c" id="v" x1="156.858" x2="155.607" y1="18.337" y2="-9.624" gradientUnits="userSpaceOnUse"/><linearGradient xlink:href="#c" id="w" x1="156.858" x2="155.607" y1="18.337" y2="-9.624" gradientUnits="userSpaceOnUse"/><linearGradient xlink:href="#c" id="x" x1="156.858" x2="155.607" y1="18.337" y2="-9.624" gradientUnits="userSpaceOnUse"/><linearGradient xlink:href="#c" id="y" x1="156.858" x2="155.607" y1="18.337" y2="-9.624" gradientUnits="userSpaceOnUse"/><linearGradient xlink:href="#c" id="z" x1="156.858" x2="155.607" y1="18.337" y2="-9.624" gradientUnits="userSpaceOnUse"/><linearGradient xlink:href="#c" id="A" x1="156.858" x2="155.607" y1="18.337" y2="-9.624" gradientUnits="userSpaceOnUse"/><linearGradient xlink:href="#c" id="B" x1="156.858" x2="155.607" y1="18.337" y2="-9.624" gradientUnits="userSpaceOnUse"/><linearGradient xlink:href="#c" id="C" x1="156.858" x2="155.607" y1="18.337" y2="-9.624" gradientUnits="userSpaceOnUse"/><linearGradient xlink:href="#c" id="D" x1="156.858" x2="155.607" y1="18.337" y2="-9.624" gradientUnits="userSpaceOnUse"/><linearGradient id="g"><stop offset="0" stop-color="#202026"/><stop offset="1" stop-color="#34343e"/></linearGradient><linearGradient id="f"><stop offset="0" stop-color="#202026"/><stop offset="1" stop-color="#383843"/></linearGradient><linearGradient id="l"><stop offset="0" stop-color="#171717"/><stop offset="1" stop-color="#373737"/></linearGradient><linearGradient id="e"><stop offset="0" stop-color="#4e4e4e"/><stop offset="1" stop-color="#393939"/></linearGradient><linearGradient id="d"><stop offset="0" stop-color="#ccc"/><stop offset="1" stop-color="#f7f7f7"/></linearGradient><linearGradient xlink:href="#d" id="I" x1="205.962" x2="209.182" y1="321.817" y2="96.927" gradientUnits="userSpaceOnUse"/><linearGradient xlink:href="#e" id="G" x1="41.278" x2="366.983" y1="271.883" y2="271.883" gradientUnits="userSpaceOnUse"/><linearGradient xlink:href="#f" id="K" x1="104.883" x2="131.463" y1="254.656" y2="132.872" gradientTransform="translate(.436 -1.744)" gradientUnits="userSpaceOnUse"/><linearGradient xlink:href="#g" id="J" x1="212.845" x2="275.596" y1="245.785" y2="82.997" gradientUnits="userSpaceOnUse"/><linearGradient xlink:href="#h" id="M" x1="4.854" x2="65.285" y1="15.839" y2="15.112" gradientUnits="userSpaceOnUse"/><clipPath id="m" clipPathUnits="userSpaceOnUse"><use xlink:href="#i"/></clipPath><clipPath id="E" clipPathUnits="userSpaceOnUse"><use xlink:href="#j"/></clipPath><clipPath id="H" clipPathUnits="userSpaceOnUse"><use xlink:href="#k"/></clipPath><radialGradient xlink:href="#l" id="F" cx="225.05" cy="449.441" r="144.721" fx="225.05" fy="449.441" gradientTransform="matrix(1.664 -.182 .31213 2.85388 -288.97 -772.044)" gradientUnits="userSpaceOnUse"/><filter id="L" width="1.826" height="1.471" x="-.413" y="-.236" color-interpolation-filters="sRGB"><feGaussianBlur stdDeviation="5.886"/></filter></defs><g clip-path="url(#m)" transform="skewX(-12.059) scale(1 .97793)"><path id="i" fill="#0d1017" fill-rule="evenodd" stroke-linecap="round" d="M14.291 1.02h66.036a8.408 8.408 0 0 1 8.426 8.427v12.784a8.408 8.408 0 0 1-8.426 8.426H14.29a8.408 8.408 0 0 1-8.426-8.426V9.447a8.408 8.408 0 0 1 8.426-8.426z"/><g fill-rule="evenodd"><g fill="url(#n)" transform="matrix(.63915 0 -.01988 .5832 6.463 2.456)"><path fill="url(#o)" d="M41.237 2.748c-.899 0-1.718.332-2.345.96l-1.328 1.329a3.26 3.26 0 0 0-.96 2.344v14.211c0 .625.165 1.187.558 1.58.393.392.955.556 1.58.556h.443c.624 0 1.188-.164 1.58-.556.393-.393.558-.955.558-1.58V8.55c0-.45.103-.692.247-.836.144-.144.386-.248.835-.248h2.658c.45 0 .69.104.834.248.144.144.248.387.248.836v13.042c0 .625.163 1.187.555 1.58.393.392.96.556 1.584.556h.402c.625 0 1.186-.164 1.579-.556.393-.393.557-.955.557-1.58V7.382c0-.9-.332-1.718-.96-2.345l-1.279-1.28a3.2 3.2 0 0 0-2.355-1.01Z" style="-inkscape-font-specification:&quot;ZCOOL QingKe HuangYou&quot;"/><path fill="url(#p)" d="M21.507 2.748c-.624 0-1.186.163-1.578.556-.393.393-.558.957-.558 1.582v7.729c0 .899.332 1.72.959 2.346l1.328 1.328a3.263 3.263 0 0 0 2.345.959h3.745c.45 0 .69.104.834.248.144.144.248.385.248.833v3.182c0 .45-.104.69-.248.834-.144.144-.385.248-.834.248h-5.876c-.625 0-1.19.165-1.583.558-.392.393-.557.957-.557 1.582v.44c0 .625.164 1.19.557 1.582.393.393.957.558 1.582.558h7.044c.9 0 1.718-.334 2.345-.961l1.328-1.328c.627-.627.96-1.447.96-2.346V4.886c0-.625-.163-1.19-.555-1.582-.393-.393-.96-.556-1.584-.556h-.44c-.625 0-1.19.163-1.583.556s-.555.957-.555 1.582l-.001 6.56c0 .45-.104.694-.248.838-.145.144-.386.248-.835.248h-2.575c-.45 0-.692-.104-.836-.248-.144-.144-.248-.389-.248-.838v-6.56c0-.625-.164-1.19-.556-1.582-.393-.393-.955-.556-1.58-.556Z" style="-inkscape-font-specification:&quot;ZCOOL QingKe HuangYou&quot;"/><path fill="url(#q)" d="M7.574 2.748c-.9 0-1.716.332-2.343.96L3.942 4.994a3.422 3.422 0 0 0-.754 1.09 3.06 3.06 0 0 0-.246 1.257v3.945c0 .484.075.93.241 1.33l.004.006.002.008c.175.385.46.728.828 1.034l1.204 1.042.004.004c.35.291.694.52 1.044.678l.02.009.019.006a3.59 3.59 0 0 0 1.227.194h3.782c.45 0 .694.104.838.248.144.144.248.385.248.833v1.21c0 .449-.105.69-.249.833-.144.144-.387.248-.836.248H8.742c-.438 0-.73-.083-.91-.194-.14-.1-.172-.154-.172-.325 0-.479-.278-.937-.682-1.199-.395-.272-.887-.374-1.456-.374H5.08c-.625 0-1.19.166-1.583.558-.392.393-.557.955-.557 1.58v.04c0 .899.333 1.717.96 2.344l1.33 1.33a3.257 3.257 0 0 0 2.343.959h4.913c.9 0 1.718-.333 2.345-.96l1.328-1.33a3.257 3.257 0 0 0 .959-2.344v-3.18c0-.9-.333-1.72-.96-2.347L14.832 12.2a3.263 3.263 0 0 0-2.347-.96H8.743c-.45 0-.692-.103-.836-.247-.144-.145-.248-.387-.248-.836v-1.65c0-.449.105-.691.249-.835.144-.144.385-.248.834-.248h2.576c.445 0 .725.088.865.186l.01.008.01.006c.18.115.2.16.2.32 0 .485.233.961.627 1.237l.01.006.009.007c.41.261.916.364 1.49.364h.443c.625 0 1.188-.164 1.58-.557.394-.392.558-.955.558-1.58l-.001-.08c0-.9-.332-1.72-.96-2.347l-1.288-1.288c-.63-.63-1.462-.96-2.384-.96Z" style="-inkscape-font-specification:&quot;ZCOOL QingKe HuangYou&quot;"/><path fill="url(#r)" d="M58.39-1.923c-.625 0-1.186.166-1.579.558-.392.393-.557.957-.557 1.582v1.45c0 .41-.1.654-.262.837-.15.146-.37.244-.78.244-.612 0-1.178.195-1.58.597-.387.387-.558.938-.558 1.54v.404c0 .625.165 1.187.558 1.58.392.392.955.556 1.58.556.408 0 .62.098.776.27l.008.011.01.008c.15.15.249.377.249.794v10.547c0 .9.331 1.718.958 2.345l1.328 1.33a3.263 3.263 0 0 0 2.345.959h2.779c.624 0 1.186-.164 1.579-.557.392-.392.559-.957.559-1.581v-.44c0-.625-.167-1.192-.56-1.584-.392-.393-.955-.557-1.58-.557h-1.608c-.449 0-.691-.104-.836-.248-.144-.144-.248-.384-.248-.833v-9.38c0-.45.103-.692.248-.836.144-.144.387-.248.836-.248h1.608c.625 0 1.188-.164 1.581-.556.393-.393.56-.955.56-1.58l-.002-.403c0-.625-.164-1.19-.557-1.582-.393-.393-.957-.556-1.582-.556h-1.609c-.449 0-.691-.104-.835-.248-.144-.144-.248-.385-.248-.834L60.97.217c0-.625-.163-1.189-.555-1.582-.393-.392-.956-.558-1.58-.558z" style="-inkscape-font-specification:&quot;ZCOOL QingKe HuangYou&quot;"/><path fill="url(#s)" d="M69.385-6.188c-.624 0-1.188.165-1.58.558-.393.393-.557.955-.557 1.58v25.642c0 .625.165 1.187.557 1.58.393.392.955.556 1.58.556h.443c.624 0 1.188-.164 1.58-.556.393-.393.558-.955.558-1.58V8.55c0-.45.103-.692.248-.836.144-.144.387-.248.836-.248h2.535c.449 0 .691.104.835.248.144.144.248.387.248.836v13.042c0 .625.163 1.187.556 1.58.392.392.957.556 1.581.556h.443c.625 0 1.188-.164 1.58-.556.393-.393.556-.955.556-1.58l.001-14.21c0-.9-.332-1.718-.958-2.345l-1.329-1.33a3.263 3.263 0 0 0-2.347-.96H73.05c-.45 0-.692-.103-.836-.247-.144-.144-.248-.385-.248-.834V-4.05c0-.625-.164-1.187-.557-1.58s-.955-.558-1.58-.558z" style="-inkscape-font-specification:&quot;ZCOOL QingKe HuangYou&quot;"/></g><g fill="url(#t)" transform="matrix(.61232 0 -.0138 .55872 -46.167 17.002)"><path fill="url(#u)" d="M227.473 21.87c-.632 0-1.222.32-1.74.839l-.284.28c-.518.52-.838 1.112-.838 1.744 0 .632.32 1.22.839 1.739l.283.283c.518.518 1.109.84 1.74.84.632 0 1.223-.322 1.741-.84l.282-.283c.518-.519.84-1.107.84-1.74 0-.631-.32-1.224-.84-1.742l-.282-.281c-.518-.519-1.109-.84-1.74-.84z" style="-inkscape-font-specification:&quot;ZCOOL QingKe HuangYou&quot;"/><path fill="url(#v)" d="M193.166 2.748c-.625 0-1.188.163-1.58.556-.393.393-.556.957-.556 1.582v.442c0 .625.162 1.187.555 1.58s.957.558 1.582.558h6.199c.449 0 .691.104.835.248.144.144.249.387.249.836l-.001.12c0 .448-.103.69-.247.835-.144.144-.387.248-.836.248h-3.825c-.899 0-1.716.332-2.343.96L191.908 12a3.422 3.422 0 0 0-.754 1.09 3.036 3.036 0 0 0-.245 1.255v4.67c0 .9.332 1.719.959 2.346l1.33 1.329c.627.627 1.444.96 2.343.96h7.489c.625 0 1.186-.166 1.579-.559.392-.393.557-.955.557-1.58V7.381c0-.9-.331-1.717-.958-2.344l-1.329-1.33a3.263 3.263 0 0 0-2.346-.96zm3.542 11.36h2.657c.449 0 .691.103.835.247.144.145.248.387.248.836l.001 3.02c0 .45-.104.69-.248.834-.144.144-.387.248-.836.248h-2.655c-.45 0-.692-.104-.836-.248-.144-.144-.248-.385-.248-.833l.001-3.021c0-.45.104-.691.248-.836.145-.144.384-.248.833-.248z" style="-inkscape-font-specification:&quot;ZCOOL QingKe HuangYou&quot;"/><path fill="url(#w)" d="M219.779-6.269c-.625 0-1.186.164-1.579.556-.393.393-.557.957-.557 1.582v5.797c0 .45-.105.69-.249.834-.144.144-.385.248-.834.248h-3.705c-.922 0-1.754.33-2.384.96l-1.29 1.287a3.262 3.262 0 0 0-.958 2.347v11.713c0 .9.332 1.718.959 2.345l1.33 1.33a3.259 3.259 0 0 0 2.343.959h7.367c.625 0 1.188-.164 1.58-.557.393-.392.558-.957.558-1.581l-.001-25.682c0-.625-.163-1.19-.555-1.582-.393-.392-.956-.556-1.58-.556zm-5.755 13.735h2.537c.449 0 .69.104.834.248.144.144.248.387.248.836v9.339c0 .449-.104.69-.248.833-.144.144-.386.248-.834.248h-2.537c-.45 0-.69-.104-.834-.248-.144-.144-.248-.384-.248-.833v-9.34c0-.448.104-.69.248-.835.144-.144.385-.248.834-.248z" style="-inkscape-font-specification:&quot;ZCOOL QingKe HuangYou&quot;"/><path fill="url(#x)" d="M178.67 2.748c-.9 0-1.719.332-2.345.96l-1.329 1.329a3.26 3.26 0 0 0-.96 2.344l.001 11.674c0 .9.332 1.718.959 2.345l1.329 1.33a3.26 3.26 0 0 0 2.344.959h4.993c.9 0 1.718-.333 2.345-.96l1.294-1.292.004-.006c.62-.652.95-1.476.95-2.376V7.381c0-.9-.329-1.724-.95-2.375l-.003-.007-1.295-1.292a3.259 3.259 0 0 0-2.345-.96zm1.169 4.718h2.616c.449 0 .69.104.833.248.145.144.249.387.249.836v9.339c0 .449-.104.69-.248.833-.145.144-.386.248-.835.248h-2.616c-.449 0-.691-.104-.835-.248-.144-.144-.248-.384-.248-.833v-9.34c0-.448.103-.69.248-.835.144-.144.387-.248.836-.248z" style="-inkscape-font-specification:&quot;ZCOOL QingKe HuangYou&quot;"/><path fill="url(#y)" d="M112.795 2.748c-.9 0-1.718.332-2.345.96l-1.328 1.329a3.26 3.26 0 0 0-.962 2.344v11.674c0 .9.334 1.718.961 2.345l1.329 1.33a3.262 3.262 0 0 0 2.345.959h4.99c.9 0 1.719-.333 2.345-.96l1.294-1.292.004-.006c.62-.652.95-1.476.95-2.376l.001-11.674c0-.9-.33-1.724-.95-2.375l-.006-.007-1.293-1.292a3.259 3.259 0 0 0-2.345-.96Zm1.165 4.718h2.618c.449 0 .69.104.834.248.144.144.25.387.25.836v9.339c0 .449-.106.69-.25.833-.144.144-.386.248-.834.248h-2.617c-.448 0-.69-.104-.833-.248-.144-.144-.248-.384-.248-.833v-9.34c0-.448.104-.69.248-.835.144-.144.383-.248.832-.248z" style="-inkscape-font-specification:&quot;ZCOOL QingKe HuangYou&quot;"/><path fill="url(#z)" d="M102.927-6.269c-.624 0-1.188.164-1.58.556-.393.393-.558.957-.558 1.582v5.797c0 .45-.104.69-.248.834-.144.144-.386.248-.834.248h-3.703c-.923 0-1.756.33-2.386.96L92.33 4.994a3.264 3.264 0 0 0-.96 2.347v11.713c0 .9.333 1.718.96 2.345l1.329 1.33a3.262 3.262 0 0 0 2.345.959h7.365c.624 0 1.19-.164 1.582-.557.393-.392.557-.957.557-1.581V-4.131c0-.625-.163-1.19-.556-1.582-.393-.392-.957-.556-1.582-.556zM97.17 7.466h2.539c.449 0 .69.104.833.248.144.144.248.387.248.836v9.339c0 .449-.103.69-.248.833-.144.144-.385.248-.834.248H97.17c-.449 0-.69-.104-.833-.248-.144-.144-.248-.384-.248-.833v-9.34c0-.448.103-.69.248-.835.144-.144.383-.248.832-.248z" style="-inkscape-font-specification:&quot;ZCOOL QingKe HuangYou&quot;"/><path fill="url(#A)" d="M154.065 2.748c-.9 0-1.72.332-2.347.96l-1.328 1.329a3.257 3.257 0 0 0-.958 2.344v14.211c0 .625.163 1.187.556 1.58.392.392.955.556 1.58.556h.444c.625 0 1.186-.164 1.579-.556.393-.393.557-.955.557-1.58V8.55c0-.45.106-.692.25-.836.144-.144.385-.248.834-.248h2.657c.449 0 .691.104.835.248.145.144.249.387.249.836v13.042c0 .625.164 1.187.557 1.58.393.392.955.556 1.58.556h.402c.625 0 1.188-.164 1.58-.556.393-.393.558-.955.558-1.58V7.382c0-.9-.335-1.718-.962-2.345l-1.277-1.28a3.2 3.2 0 0 0-2.355-1.01z" style="-inkscape-font-specification:&quot;ZCOOL QingKe HuangYou&quot;"/><path fill="url(#B)" d="M126.245 2.748c-.573 0-1.083.122-1.463.45-.38.329-.556.836-.556 1.367 0 .237.01.42.057.608l-.006-.02 3.424 16.75v.005c.126.563.375 1.043.771 1.375.397.332.915.486 1.475.486h2.576c.584 0 1.12-.154 1.522-.5.402-.346.636-.85.73-1.43v-.005l1.007-6.656 1.01 6.656v.004c.094.581.33 1.085.731 1.43.402.347.937.501 1.522.501h2.537c.56 0 1.078-.154 1.475-.486.396-.332.645-.812.77-1.375l.002-.008 3.297-16.727a2.3 2.3 0 0 0 .056-.568c0-.514-.204-1.004-.572-1.342-.366-.359-.88-.515-1.447-.515h-.442c-.582 0-1.113.149-1.516.486-.403.337-.64.836-.734 1.406l-2.22 12.44-1.856-9.355v-.002c-.11-.566-.353-1.056-.753-1.39-.4-.334-.924-.486-1.495-.486h-.847c-.593 0-1.13.148-1.541.484-.41.336-.654.836-.75 1.408l-1.775 9.457-2.256-12.556v-.002c-.096-.572-.34-1.073-.75-1.408-.41-.336-.947-.482-1.54-.482Z" style="-inkscape-font-specification:&quot;ZCOOL QingKe HuangYou&quot;"/><path fill="url(#C)" d="M168.844-6.308c-.625 0-1.188.163-1.581.556s-.557.955-.557 1.58l-.001 25.723c0 .624.166 1.189.559 1.581.392.393.955.557 1.58.557h.402c.624 0 1.188-.164 1.58-.557.393-.392.558-.957.558-1.581V-4.172c0-.625-.165-1.187-.558-1.58s-.955-.556-1.58-.556z" style="-inkscape-font-specification:&quot;ZCOOL QingKe HuangYou&quot;"/><path fill="url(#D)" d="M227.272-10.094c-.624 0-1.188.163-1.58.556-.393.393-.558.96-.558 1.584v27.01c0 .624.165 1.188.557 1.58.393.393.955.557 1.58.557h.402c.625 0 1.19-.164 1.583-.556.392-.393.557-.957.557-1.582v-27.01c0-.624-.164-1.19-.557-1.583s-.957-.556-1.582-.556z" style="-inkscape-font-specification:&quot;ZCOOL QingKe HuangYou&quot;"/></g></g><g fill-rule="evenodd"><path d="m49.238 10.642-.488 5.503.22.585s.225.602.577 1.309c.352.706.625 1.55 1.93 2.596 3.642 2.915 7.746 3.087 10.604 3.449 5.073.642 11.998 2.443 16.712-1.15 1.417-1.08 1.497-2.402 1.69-3.47.195-1.067.227-2.001.227-2.001l.104-2.738Zm4.64 5.523 21.104 2.729c-2.783 1.81-8.033.882-13.323.212-2.866-.362-5.74-.835-7.36-1.977-.03-.056-.226-.276-.344-.513-.059-.118-.053-.12-.098-.222z"/><path d="M76.997 8.613a2.896 2.343 45 0 0-1.917.192l-15.48 9.45a2.896 2.343 45 0 0 1.905 4.94l-1.02-.329s.885.466 1.869 1.124c.984.658 1.955 1.727 1.822 1.485.818 1.49.433 3.853.084 7.054-.155 1.413-.26 2.616-.26 2.616a2.896 2.343 45 0 0 2.843 3.377l19.897 2.542a2.896 2.343 45 0 0 2.415-2.153s-.124-4.66-.624-7.564c-.551-3.197-1.162-6.683-2.712-10.221-1.016-2.32-2.728-4.976-4.234-7.223a129.299 129.299 0 0 0-2.802-4.015 2.896 2.343 45 0 0-1.785-1.275zm-.591 6.104c.33.477.609.867.988 1.433 1.416 2.115 3.036 4.755 3.659 6.178 1.162 2.651 1.744 5.666 2.287 8.822.18 1.045.316 2.825.411 4.362L69.563 33.7c.355-2.693 1.241-6.086-.883-9.956-.709-1.29-1.58-2.143-2.451-2.815z"/><path d="M84.074 3.177c-2.174-.298-5.018-.51-7.004-.582-4.45-.161-11.667.511-13.21.655l.056-.004c-.203.013-.412.032-.622.056h-.011l.026-.002-.032.003h-.005l-.005.001-.024.003.032-.003h.01l-.048.004-.045.005-.025.004-.037.006c-3.15.4-5.658 1.768-7.971 2.558-1.55.53-4.683.462-6.451 3.01-1.309 1.885-1.275 4.373-.588 6.62.417 1.365 1.262 2.581 2.53 3.492.89.639 1.479.77 1.987.867.084.13.136.228.231.365.302.432.653.9 1.147 1.38.495.48 1.204 1.115 2.355 1.264 1.177.152 1.765-.324 2.182-.68.416-.356.695-.733.933-1.09.066-.098.097-.17.155-.266l12.899 1.652.552-.996s.238-.428.578-.92c.34-.494.886-1.035.878-1.03-.065.04 1.097-.138 2.36-.142.631-.001 1.284.015 2.049-.206.382-.11.824-.29 1.213-.714.388-.425.628-1.151.573-1.825-.078-.95-.134-1.644-.265-2.346.195-.01.47-.023.643-.033.39-.023.72-.045.98-.066.13-.01.243-.02.353-.033.11-.012.092.037.52-.106.798-.267.719-.392.942-.57.222-.178.459-.379.708-.582.498-.407 1.094-.825 1.317-.928.095-.044.733-.17 1.456-.265.36-.048.747-.097 1.177-.213.43-.116.973-.246 1.468-.899.711-.937.432-1.634.318-2.158a6.856 6.856 0 0 0-.508-1.456c-.435-.938-.815-1.857-2.163-2.8-1.02-.714-1.308-.608-1.84-.726a22.173 22.173 0 0 0-1.774-.304zm-20.614.119c-.053 0-.096.007-.144.01.014 0 .02-.005.034-.005zm-.578.084a2.398 2.398 0 0 0-.2.072c-.011.004.068-.032.2-.072zm23.774 3.821c.003.004-.007.012-.032.02a.21.21 0 0 0-.032.005c.036-.02.06-.029.064-.025zm-2.258.367c.009 0 .013.002.021.003-.316.075-.643.17-.986.329-.835.385-1.468.916-2.017 1.365-.264.215-.492.406-.657.54-.205.015-.47.033-.81.053-.75.044-1.768.095-2.864.147l-2.484.119 1.01 2.52c.107.27.208.532.297.774.247.681.296 1.027.333 1.546-.096.004-.164.011-.272.011-1.097.003-2.702-.306-4.277.662-.937.577-1.402 1.306-1.84 1.942-.055.078-.083.13-.133.206l-13.086-1.676-.503 1.154s-.08.164-.191.374c-.137-.231-.235-.407-.235-.407l-.716-1.374-1.434-.155s-.264-.03-.58-.098c-.14-.03-.284-.097-.378-.138-.1-.12-.224-.292-.254-.39-.348-1.14-.25-2.562.178-3.178.514-.74 2.462-.982 4.813-1.785 2.695-.92 5.046-2.123 7.281-2.397l-.017.002.038-.005c.151-.018.31-.032.478-.043l.028-.002.028-.003c1.499-.14 8.863-.778 12.671-.64 1.82.066 4.642.28 6.558.544zm1.583.797c.014.04.051.133.052.136a.447.447 0 0 1-.052-.136zm-21.054-.717zm16.171 2.111c.016 0-.02.018-.037.02l-.044.004c.015-.004.076-.024.081-.024z"/><path d="M78.305.15c-.212-.039-.357-.031-.518-.046a8.62 8.62 0 0 0-.916-.029 25.6 25.6 0 0 0-2.007.12 57.575 57.575 0 0 0-4.213.55c-3.792.652-10.016 2.72-10.016 2.72l.255-.067c-.793.158-1.653 1.146-1.729 1.943-.076.796.136 1.24.271 1.559.27.64.502.932.748 1.272.49.68 1.055 1.335 1.639 1.994a85.894 85.894 0 0 0 2.385 2.569l1.338 1.377 1.577-.405s2.425-.622 4.894-1.27a365.67 365.67 0 0 0 3.447-.92 70.48 70.48 0 0 0 1.217-.342c.16-.047.295-.088.422-.13.127-.042.025.095.614-.272.821-.51.645-.583.79-.77.143-.188.282-.382.427-.574.289-.386.653-.78.68-.802-.106.084.28-.124.803-.316.262-.095.56-.2.92-.394.36-.193.875-.427 1.252-1.291.565-1.294.092-2.001-.119-2.513a6.867 6.867 0 0 0-.719-1.303c-.54-.792-.95-1.577-2.526-2.33-.426-.204-.704-.29-.916-.33zm.134 5.368c.016.001.006.031-.13-.003l.13.003zm-3.947.314c-.005.002-.008.007-.011.008l-.056.017.039-.022.028-.003zm-.345.05-.056.075a68.75 68.75 0 0 1-1.036.291c-.939.257-2.175.585-3.402.907-1.641.431-2.362.615-3.258.846-.07-.074-.135-.146-.206-.224 2.133-.638 4.71-1.37 6.434-1.667.431-.074.975-.152 1.524-.228z"/></g><g stroke-linecap="round" stroke-linejoin="round" clip-path="url(#E)" transform="matrix(.08335 .01078 .00678 .08292 46.057 -6.17)"><path id="j" fill="url(#F)" fill-rule="evenodd" d="m158.18 302.059 197.116-139.576s54.127 75.593 70.295 118.615c13.372 35.583 17.38 74.26 20.863 112.113 2.653 28.833-.04 86.864-.04 86.864l-238.762.38s2.426-14.561 5.632-31.677c6.894-36.811 18.977-74.204 3.198-105.74-10.63-21.242-58.301-40.98-58.301-40.98z"/><path fill="none" stroke="#0d0d0d" stroke-width="13.018" d="m156.547 285.177 175.02-103.926s51.517 112.76 20.018 153.723c-41.976 54.589-204.835 26.833-204.835 26.833z"/><path fill="none" stroke="#0d0d0d" stroke-width="13.018" d="m77.228 260.86 273.936-1.596s39.458 117.524 3.853 154.973C307.568 464.143 148.5 419.53 148.5 419.53z"/><path fill="none" stroke="#0d0d0d" stroke-width="13.018" d="m70.99 288.39 276.674-44.577s64.655 198.103 2.748 257.627c-47.228 45.41-196.31-9.807-196.31-9.807z"/><path fill="#d9d9d9" fill-rule="evenodd" stroke="#b2b2b2" stroke-width="20" d="m329.334 275.894 32.54-146.372 85.534 123.915s-59.658 82.003-98.498 70.776c-16.694-4.826-19.576-48.319-19.576-48.319z"/><path fill="#d9d9d9" fill-rule="evenodd" stroke="#b2b2b2" stroke-width="20" d="M360.355 327.998c5.868-13.773 28.578-12.385 37.9-24.101 15.045-18.913 24.155-68.36 24.155-68.36l42.165 110.662s-61.144 59.63-91.57 44.574c-19.133-9.466-21.017-43.138-12.65-62.775z"/><path fill="#d4d4d4" fill-rule="evenodd" stroke="#b2b2b2" stroke-width="20" d="M374.963 397.41c7.604-12.897 29.943-8.577 40.704-18.986 17.37-16.803 32.813-64.653 32.813-64.653l27.465 115.195s-68.357 51.2-96.576 32.329c-17.743-11.867-15.247-45.498-4.406-63.886z"/><path fill="#ccc" fill-rule="evenodd" stroke="#b2b2b2" stroke-width="20" d="M377.337 460.965c10.037-11.108 31.055-2.394 43.685-10.432 20.389-12.976 45.118-56.754 45.118-56.754l3.794 118.362s-77.24 36.444-101.099 12.294c-15.002-15.185-5.808-47.632 8.502-63.47z"/></g><g fill-rule="evenodd" stroke="#b2b2b2" transform="matrix(.08335 .01078 .00678 .08292 46.057 -6.17)"><path fill="url(#G)" stroke="none" d="M47.278 229.89h319.705s-4.6 38.81-18.235 50.311c-47.778 40.304-121.316 33.103-184.544 33.282-35.12.1-77.976 1.673-107.514-19.652-8.672-6.26-15.412-28.145-15.412-28.145z"/><path fill="#999" stroke="none" d="M180.444 124.134s78.941-35.146 120.227-47.475c27.32-8.158 76.321-20.065 83.756-17.353 8.211 2.996 19 19.969 16.63 24.822-3.209 6.574-21.254 11.044-30.2 18.836-8.922 7.77-19.89 25.207-22.74 27.252-4.05 2.908-123.982 48.477-123.982 48.477s-52.366-51.734-43.69-54.56z"/><g clip-path="url(#H)"><path id="k" fill="url(#I)" stroke="none" d="M451.527 80.508c-24.517-.201-58.666 1.671-81.673 3.828-49.924 4.68-138.985 24.158-157.57 28.287a143.46 143.46 0 0 0-7.159 1.572l-.207.045c-.04.005-.061.033-.1.04-33.16 8.303-64.012 27.909-95.324 42.327-24.309 11.194-55.203 16.256-70.674 38.094-11.765 16.607-14.097 40.486-9.504 60.313 2.033 8.773 7.888 17.327 15.512 22.12 7.133 4.485 24.942 4.108 24.942 4.108s14.083 30.055 26.47 30.055c11.852 0 26.469-29.947 26.469-29.947l154.846-.198s15.208-25.75 27.041-34.176c19.23-13.694 66.855-5.524 66.855-23.363 0-20.22.802-24.834-3.48-39.392a285.822 285.822 0 0 0-3.13-9.883c26.755-4.742 49.73-8.936 51.778-9.865 4.142-1.88 22.513-21.274 35.828-28.895 13.353-7.642 37.435-8.754 43.182-16.3 4.243-5.573-5.175-29.893-14.86-35.784-3.287-2-14.531-2.866-29.242-2.986z"/><path fill="#111" stroke="none" d="m302.406 73.904-173.258 48.442a5.119 5.119 0 0 0-3.658 5.85s4.621 25.33 11.21 51.587c3.293 13.129 7.068 26.487 11.093 37.213 2.012 5.363 4.072 10.064 6.295 13.873 2.223 3.81 4.373 6.969 8.283 8.666 3.642 1.581 7.292 1.488 12.326 1.287 5.035-.2 11.165-.86 18.11-1.879 13.89-2.035 30.993-5.513 48.12-9.748 17.128-4.234 34.252-9.217 48.184-14.316 6.967-2.55 13.13-5.124 18.174-7.711 5.044-2.587 8.965-5.01 11.705-8.277 6.259-7.464 7.527-18.538 7.34-31.041-.187-12.504-2.235-26.62-4.851-39.996-5.234-26.752-12.817-50.57-12.817-50.57a5.119 5.119 0 0 0-6.256-3.38zm-2.119 11.223c1.777 5.804 6.858 22.777 11.145 44.691 2.547 13.023 4.492 26.7 4.664 38.186.171 11.486-1.836 20.597-4.95 24.31-.957 1.142-4.06 3.452-8.533 5.747-4.472 2.294-10.315 4.75-17.02 7.205-13.407 4.907-30.27 9.825-47.122 13.992-16.853 4.166-33.724 7.59-47.149 9.556-6.712.984-12.572 1.602-17.033 1.78-4.461.177-7.812-.437-7.842-.45.04.018-1.771-1.443-3.517-4.435-1.746-2.992-3.663-7.273-5.553-12.309-3.78-10.072-7.508-23.185-10.75-36.107a813.21 813.21 0 0 1-10.168-46.361zM110.17 127.645l-37.38 5.716a5.119 5.119 0 0 0-4.256 6.006s4.955 26.356 10.761 53.264c2.904 13.454 6.016 27.04 8.86 37.639 1.421 5.299 2.767 9.836 4.043 13.355.637 1.76 1.247 3.258 1.93 4.578.682 1.32 1.032 2.55 3.29 3.926 3.265 1.99 6.748 2.243 10.436 2.156 3.688-.086 7.61-.719 11.424-1.709 3.813-.99 7.492-2.327 10.664-3.998 3.172-1.67 6.01-3.434 7.758-6.89 1.085-2.146.861-3.208.86-4.616-.003-1.407-.123-2.963-.323-4.761-.401-3.597-1.142-8.13-2.115-13.356-1.948-10.45-4.837-23.616-7.83-36.57-5.987-25.91-12.39-50.95-12.39-50.95a5.119 5.119 0 0 0-5.732-3.79zm-3.091 10.828c.983 3.862 5.814 22.743 11.238 46.217 2.976 12.879 5.845 25.965 7.742 36.142.948 5.089 1.653 9.464 2.004 12.613.175 1.575.258 2.852.26 3.643 0 .113-.025.126-.037.223-.292.263-1.253 1.229-3.114 2.209-2.24 1.18-5.306 2.328-8.466 3.148-3.16.82-6.442 1.323-9.09 1.385-2.227.052-3.739-.32-4.383-.535-.005-.01-.007-.005-.012-.014-.347-.672-.853-1.857-1.4-3.367-1.095-3.022-2.4-7.376-3.78-12.52-2.76-10.287-5.855-23.78-8.74-37.146a2049.21 2049.21 0 0 1-9.7-47.795z"/><g stroke="none"><path fill="url(#J)" d="m130.526 127.276 173.258-48.442s30.029 94.415 11.284 116.769c-14.792 17.64-135.973 45.612-150.659 39.236-15.478-6.72-33.883-107.563-33.883-107.563z"/><path fill="url(#K)" d="m73.563 138.422 37.38-5.718s25.567 99.998 22.19 106.674c-3.31 6.545-26.049 12.647-33.051 8.38-6.732-4.103-26.519-109.336-26.519-109.336Z"/></g><g fill="#fea737" stroke="#dbdbdb" stroke-width="5.118" transform="rotate(-5.926 16.744 6.945)"><rect width="18.502" height="33.168" x="349.115" y="130.962" ry="9.251"/><rect width="18.502" height="33.168" x="379.826" y="130.962" ry="9.251"/><rect width="18.502" height="33.168" x="410.537" y="130.962" ry="9.251"/></g></g><rect width="34.203" height="59.979" x="166.444" y="161.25" fill="#fda737" stroke="none" filter="url(#L)" ry="17.101"/><rect width="34.203" height="59.979" x="166.444" y="161.25" fill="#fda737" stroke="none" ry="17.101"/><g stroke="none" transform="rotate(14.011)"><circle cx="116.027" cy="212.236" r="8.19"/><circle cx="85.813" cy="223.026" r="8.19"/><circle cx="93.212" cy="191.27" r="8.19"/></g></g></g><path fill="url(#M)" fill-rule="evenodd" d="M14.291.01c-5.21 0-9.437 4.226-9.437 9.437V22.23c0 5.211 4.226 9.438 9.437 9.438h66.035c5.211 0 9.438-4.227 9.438-9.438V9.447c0-5.21-4.227-9.437-9.438-9.437zm0 2.021h66.035a7.378 7.378 0 0 1 7.416 7.416V22.23a7.378 7.378 0 0 1-7.416 7.416H14.291a7.377 7.377 0 0 1-7.414-7.416V9.447a7.377 7.377 0 0 1 7.414-7.416z" transform="skewX(-12.059) scale(1 .97793)"/></svg>